<?xml version="1.0" encoding="UTF-8"?>
<svg id="Art_Layer" data-name="Art Layer" xmlns="http://www.w3.org/2000/svg" viewBox="0 0 217.15 186.51">
  <defs>
    <style>
      .cls-1 {
        fill: #929497;
      }

      .cls-2 {
        fill: #cfb991;
      }
    </style>
  </defs>
  <g>
    <polygon points="61.15 157.49 56.54 157.49 56.54 185.54 76.77 185.54 76.77 180.92 61.15 180.92 61.15 157.49"/>
    <path d="m119.44,173.82h11.36c1.96,0,3.55,1.59,3.55,3.55s-1.59,3.55-3.55,3.55h-11.36v-7.1Zm9.41-4.61h-9.41v-7.1h9.41c1.96,0,3.55,1.59,3.55,3.55s-1.59,3.55-3.55,3.55m6.5,1.4c1.08-1.43,1.67-3.18,1.67-4.95,0-4.5-3.66-8.16-8.17-8.16h-14.02v28.04h15.97c4.5,0,8.17-3.66,8.17-8.16,0-2.74-1.35-5.24-3.62-6.77"/>
    <path d="m152.26,176.04l5.38-9.88,5.42,9.88h-10.8Zm-10.44,9.49h5.26l2.65-4.88h15.82l2.69,4.88h5.26l-15.87-28.97-15.82,28.97Z"/>
    <polygon points="183.54 180.92 183.54 157.49 178.93 157.49 178.93 185.54 199.16 185.54 199.16 180.92 183.54 180.92"/>
    <path d="m35.17,176.02h9.29c-1.7,3.42-5.22,5.77-9.29,5.77-5.73,0-10.38-4.65-10.38-10.38s4.65-10.38,10.38-10.38c3.84,0,7.19,2.09,8.98,5.2l4.04-2.33c-2.6-4.5-7.45-7.53-13.02-7.53-8.31,0-15.04,6.73-15.04,15.04s6.73,15.04,15.04,15.04,15.04-6.73,15.04-15.04h-15.04v4.61Z"/>
    <path d="m93.76,182.32c-6.09,0-10.36-4.66-10.36-10.88s4.27-10.88,10.36-10.88,10.36,4.66,10.36,10.88-4.27,10.88-10.36,10.88m0,4.19c8.42,0,15.16-6.39,15.16-15.07s-6.74-15.07-15.16-15.07-15.16,6.39-15.16,15.07,6.74,15.07,15.16,15.07"/>
  </g>
  <g>
    <path d="m102.6,96.45c-9.65-5.23-18.89-13.14-24.31-22.98-.81-1.46-1.55-2.95-2.22-4.48-.05-.11-.17-.18-.29-.18-3.63.28-7.27.44-10.95.49-.22,0-.36.23-.27.42,6.76,14.17,21.13,24.75,37.83,27.31.35.05.52-.42.2-.59Z"/>
    <path class="cls-2" d="m156.76,40.65c-.04-.21-.28-.32-.46-.2-2.21,1.5-4.86,3.28-7.14,4.68-.11.07-.16.19-.13.31,2.62,12.43-.7,27.44-3.41,34.14-.14.35.33.61.56.32,5.74-7.31,10.13-16.3,11.07-26.66.39-4.26.21-8.48-.48-12.59Z"/>
    <path class="cls-2" d="m140.91,50.19c-.03-.2-.25-.32-.43-.22-5.24,2.78-10.62,5.27-16.15,7.48-.14.06-.22.2-.18.35,2.61,9.89,4.92,22.46,5.28,33.86.01.32.4.46.61.22.22-.26.44-.52.65-.78,8.22-10.12,11.79-26.15,10.44-39.11-.06-.6-.14-1.19-.22-1.79Z"/>
    <path d="m115.05,60.84c-9.33,3.1-18.98,5.4-28.89,6.82-.2.03-.31.25-.22.43.15.3.31.6.47.9,6.3,11.42,17.59,21.67,30.12,25.3,1.35.39,2.7.71,4.06.97.29.06.55-.18.53-.47-.84-10.89-3.04-23.48-5.69-33.75-.04-.17-.22-.26-.38-.21Z"/>
    <path d="m72.76,59.38c-2.44-9.8-2.28-20.11.6-30.08,2.61-9.02,7.24-16.92,13.24-23.36.23-.24-.06-.62-.36-.47-14.28,7.41-24.63,21.71-26.2,38.89h0c-.48,5.25-.09,10.38,1.01,15.25.06.25.29.44.55.44,3.65.03,7.28-.07,10.89-.29.19-.01.31-.19.27-.37Z"/>
    <path d="m82.16,58.6c.04.14.18.23.32.21,10.3-1.3,20.34-3.63,29.99-6.87.15-.05.24-.22.19-.37-4.53-13.9-10.96-27.02-19.02-39.06-.11-.16-.34-.18-.47-.04-4.94,5.38-8.74,11.92-10.9,19.39-2.57,8.88-2.56,18.07-.12,26.74Z"/>
    <path class="cls-2" d="m106.42.64c8.09,1.97,15.89,5.7,22.77,11.29,7.79,6.32,13.68,14.38,17.3,23.45.07.17.28.24.43.14,2.3-1.45,4.55-2.95,6.78-4.52.17-.12.24-.35.16-.55-1.87-4.61-4.45-8.94-7.72-12.86h0C137.82,7.55,126.08,1.38,113.09.2c-2.23-.2-4.44-.24-6.62-.15-.34.02-.39.5-.05.59Z"/>
    <path class="cls-2" d="m138.44,40.26c-2.99-8.21-8.14-15.49-15.1-21.13-6.04-4.91-12.91-8.11-20.03-9.7-.26-.06-.46.23-.31.45,7.68,11.93,13.88,24.83,18.35,38.43.05.16.23.25.39.18,5.68-2.31,11.2-4.95,16.56-7.87.13-.07.19-.23.14-.36Z"/>
  </g>
  <path d="m11.36,114.45v14.59l7.56-.56c1.88-.86,3.81-2,3.81-6.71,0-3.56-.17-7.32-7.07-7.32h-4.29Zm-7.19.13l-4.06-1.18v-2.93h15.86c10.33,0,14.14,3.3,14.14,11.1,0,7.3-4.17,11.08-12.33,11.08h-6.42v11.68l4.11,1.18v2.72H0v-2.72l4.16-1.18v-29.75Z"/>
  <path d="m83.9,114.48v14.39l7.65-.51c2.43-1.2,3.6-3.13,3.6-7.09,0-4.16-1.34-6.78-5.66-6.78h-5.58Zm5.13,17.68h-5.13v12.18l4.11,1.18v2.72h-15.47v-2.72l4.16-1.18v-29.75l-4.11-1.18v-2.93h16.56c9.81,0,13.39,3.48,13.39,10.17,0,5.17-2.02,7.86-6.68,9.71l6.99,13.67,4.52,1.49v2.72h-10.53l-7.81-16.08Z"/>
  <path d="m121.8,114.48v29.86h5.41c3.71,0,10.11-.6,10.11-14.23,0-10.74-1.93-15.62-10.11-15.62h-5.41Zm-11.36,31.04l4.11-1.13v-29.81l-4.06-1.18v-2.93h18.26c10.33,0,16.36,6.23,16.36,18.47,0,13.86-6.25,19.3-17.14,19.3h-17.52v-2.72Z"/>
  <polygon points="187.33 110.47 187.33 113.4 191.38 114.58 191.38 144.39 187.28 145.52 187.28 148.24 216.48 148.24 217.15 137.3 213.13 137.3 210.46 144.34 198.63 144.34 198.63 130.75 205.33 130.75 206.2 134.55 209.17 134.55 209.17 123.11 206.2 123.11 205.33 126.78 198.63 126.78 198.63 114.48 209.94 114.48 212.1 121.78 216.18 121.78 215.92 110.47 187.33 110.47"/>
  <path d="m65.24,135.25c0,9.58-4.57,13.55-13.95,13.55-8.63,0-14.88-3.45-14.88-12.55v-21.67l-4.11-1.18v-2.93h15.42v2.93l-4.11,1.18v21.67c0,5.45,2.52,7.84,8.53,7.84,4.15,0,7.97-2.43,7.97-8.34v-21.17l-4.06-1.18v-2.93h13.31v2.93l-4.11,1.18v20.67Z"/>
  <path d="m179.98,135.25c0,9.58-4.57,13.55-13.95,13.55-8.63,0-14.88-3.45-14.88-12.55v-21.67l-4.11-1.18v-2.93h15.42v2.93l-4.11,1.18v21.67c0,5.45,2.52,7.84,8.53,7.84,4.15,0,7.97-2.43,7.97-8.34v-21.17l-4.06-1.18v-2.93h13.31v2.93l-4.11,1.18v20.67Z"/>
  <g>
    <path class="cls-1" d="m206.62,180.88v.57h-1.62v4.24h-.66v-4.24h-1.62v-.57h3.91Z"/>
    <path class="cls-1" d="m207.2,180.88h.94l1.38,4.07,1.38-4.07h.93v4.82h-.62v-2.84c0-.1,0-.26,0-.49,0-.23,0-.47,0-.73l-1.38,4.06h-.65l-1.39-4.06v.15c0,.12,0,.3,0,.54s0,.42,0,.53v2.84h-.62v-4.82Z"/>
  </g>
</svg>